<?xml version="1.0" encoding="UTF-8"?>
<!DOCTYPE svg PUBLIC "-//W3C//DTD SVG 1.1//EN" "http://www.w3.org/Graphics/SVG/1.1/DTD/svg11.dtd">
<svg version="1.1" xmlns="http://www.w3.org/2000/svg" xmlns:xlink="http://www.w3.org/1999/xlink" x="0" y="0" width="100" height="80" viewBox="0, 0, 100, 80">
  <g id="Background">
    <rect x="0" y="0" width="100" height="80" fill="#FFFFFF"/>
  </g>
  <g id="Layer_1">
    <path d="M48.149,37.867 Q47.973,37.488 47.973,37.16 Q47.973,36.789 48.192,36.47 Q48.411,36.152 48.748,35.957 Q49.086,35.761 49.45,35.761 Q49.856,35.761 50.127,35.986 Q50.399,36.21 50.399,36.523 Q50.399,36.757 50.268,36.957 Q50.137,37.156 49.993,37.156 Q49.922,37.156 49.922,37.082 Q49.922,37.054 49.961,36.96 Q50.024,36.808 50.024,36.652 Q50.024,36.417 49.832,36.271 Q49.641,36.125 49.372,36.125 Q48.938,36.125 48.561,36.482 Q48.184,36.839 48.184,37.3 Q48.184,37.507 48.239,37.65 Q48.293,37.792 48.338,37.835 Q48.383,37.878 48.465,37.878 Q49.004,37.878 49.004,38.191 Q49.004,38.269 48.948,38.339 Q48.891,38.41 48.782,38.41 Q48.661,38.41 48.473,38.25 Q48.274,38.078 48.082,38.078 Q47.836,38.078 47.616,38.322 Q47.395,38.566 47.395,38.902 Q47.395,39.554 48.043,40.134 Q48.692,40.714 49.657,40.714 Q50.571,40.714 51.221,40.259 Q51.872,39.804 51.872,39.171 Q51.872,38.75 51.551,38.439 Q51.231,38.128 50.684,38.128 Q50.243,38.128 49.897,38.371 Q49.551,38.613 49.551,38.976 Q49.551,39.195 49.676,39.335 Q49.801,39.476 49.934,39.476 Q50.086,39.476 50.086,39.312 L50.082,39.265 Q50.079,39.214 50.079,39.195 Q50.079,39.023 50.172,38.912 Q50.266,38.8 50.411,38.8 Q50.547,38.8 50.649,38.896 Q50.75,38.992 50.75,39.164 Q50.75,39.41 50.581,39.574 Q50.411,39.738 50.145,39.738 Q49.829,39.738 49.6,39.513 Q49.372,39.289 49.372,38.96 Q49.372,38.48 49.774,38.085 Q50.176,37.691 51.235,37.691 Q52.184,37.691 52.614,37.429 Q53.043,37.171 53.043,36.644 Q53.043,36.332 52.852,36.13 Q52.661,35.929 52.368,35.929 Q52.223,35.929 52.151,35.97 Q52.079,36.011 52.079,36.097 Q52.079,36.152 52.149,36.253 Q52.239,36.382 52.239,36.503 Q52.239,36.648 52.127,36.757 Q52.016,36.867 51.852,36.867 Q51.657,36.867 51.555,36.742 Q51.454,36.617 51.454,36.449 Q51.454,36.183 51.713,35.972 Q51.973,35.761 52.375,35.761 Q52.789,35.761 53.065,36.064 Q53.34,36.367 53.34,36.792 Q53.34,37.195 53.104,37.527 Q52.868,37.859 52.506,37.996 Q52.145,38.132 51.493,38.156 Q52.118,38.597 52.118,39.289 Q52.118,39.808 51.735,40.292 Q51.352,40.777 50.807,41.011 Q50.262,41.246 49.477,41.246 Q48.84,41.246 48.446,41.107 Q48.051,40.968 47.694,40.703 Q47.336,40.437 47.131,40.052 Q46.926,39.667 46.926,39.226 Q46.926,38.687 47.235,38.32 Q47.543,37.953 48.149,37.867 z" fill="#000000"/>
    <path d="M43.004,42.749 Q43.004,45.034 41.264,46.641 Q39.524,48.248 37.079,48.248 Q35.645,48.248 33.652,47.372 Q33.12,47.133 32.855,47.133 Q32.536,47.133 32.456,47.903 Q32.43,48.302 32.111,48.302 Q31.845,48.302 31.845,47.983 Q31.845,47.77 31.872,47.664 Q32.084,46.043 32.084,44.662 Q32.084,44.396 32.031,43.174 Q32.005,43.014 32.005,42.749 Q32.005,42.35 32.323,42.35 Q32.589,42.35 32.695,42.988 Q33.386,47.717 37.186,47.717 Q38.806,47.717 39.696,46.8 Q40.586,45.884 40.586,44.21 Q40.586,42.722 39.723,41.673 Q38.859,40.623 36.76,39.587 Q34.236,38.338 33.253,37.169 Q32.27,36 32.27,34.273 Q32.27,32.068 33.692,30.633 Q35.113,29.198 37.292,29.198 Q38.195,29.198 39.789,29.81 Q40.347,30.022 40.613,30.022 Q40.905,30.022 40.998,29.916 Q41.091,29.81 41.171,29.358 Q41.224,29.092 41.463,29.092 Q41.729,29.092 41.729,29.411 Q41.729,29.624 41.702,29.73 Q41.623,30.368 41.623,31.271 Q41.623,32.546 41.755,33.29 L41.782,33.715 Q41.809,34.007 41.543,34.007 Q41.251,34.007 41.144,33.396 Q40.852,31.829 39.763,30.779 Q38.673,29.73 37.318,29.73 Q35.99,29.73 35.206,30.58 Q34.422,31.43 34.422,32.892 Q34.422,34.592 35.565,35.628 Q36.203,36.213 38.328,37.275 Q40.826,38.524 41.915,39.813 Q43.004,41.101 43.004,42.749 z" fill="#000000"/>
    <path d="M71.111,47.744 Q71.111,47.983 70.713,47.983 Q70.447,47.983 70.234,47.956 L66.86,47.903 L63.486,47.956 Q63.3,47.983 63.087,47.983 Q62.556,47.983 62.556,47.717 Q62.556,47.425 63.273,47.425 Q65.611,47.398 65.611,46.947 Q65.611,46.92 65.558,46.734 L65.346,46.017 L65.213,45.645 Q64.974,44.821 64.044,42.005 L58.358,42.005 Q56.764,46.256 56.764,46.893 Q56.764,47.265 57.083,47.345 Q57.163,47.372 58.411,47.451 Q59.182,47.478 59.182,47.717 Q59.182,47.983 58.491,47.983 Q57.269,47.983 55.648,47.876 Q55.25,47.85 54.824,47.85 Q54.399,47.85 54.001,47.903 Q53.788,47.93 53.655,47.93 Q53.283,47.93 53.283,47.69 Q53.283,47.451 54.12,47.425 Q54.957,47.398 55.329,47.172 Q55.701,46.947 55.914,46.309 Q59.341,36.532 61.493,30.607 Q61.546,30.288 61.706,29.889 L61.839,29.411 Q61.918,29.119 62.051,29.119 Q62.131,29.119 62.184,29.278 Q62.529,30.314 63.752,33.609 Q64.708,36.186 68.507,46.548 Q68.72,47.133 69.052,47.292 Q69.384,47.451 70.42,47.478 Q71.111,47.505 71.111,47.744 z M63.884,41.394 Q63.459,40.198 62.476,37.435 L61.201,33.795 Q60.085,36.717 58.518,41.394 z" fill="#000000"/>
    <g>
      <path d="M48.095,8.289 C48.319,8.111 48.08,7.746 47.826,7.823 C45.864,8.413 47.663,10.962 49.171,10.487 C50.049,10.21 50.478,9.227 50.289,8.333 C49.99,6.914 48.729,6.374 47.404,6.18 C44.8,5.798 42.378,7.39 42.62,10.149 C42.8,12.204 44.22,14.235 46.065,15.259 C43.712,14.458 41.713,12.825 39.711,11.281 C36.841,9.067 34.022,7.741 30.451,7.032 C25.52,6.053 17.345,7.185 15.297,12.667 C14.687,14.301 15.193,16.624 16.948,17.307 C18.298,17.833 20.367,17.652 20.783,15.938 C21.019,14.962 20.28,12.445 18.792,13.308 C17.441,14.093 18.057,15.8 19.505,15.765 C19.654,15.762 19.692,15.612 19.631,15.518 C20.395,15.963 20.347,16.398 19.466,16.823 C19.042,17.029 18.603,17.112 18.148,17.072 C17.049,17.06 16.132,16.246 15.786,15.25 C14.976,12.921 16.766,10.839 18.526,9.618 C22.103,7.137 26.928,6.878 31.059,7.692 C34.917,8.452 37.722,10.663 40.76,12.982 C43.103,14.771 45.658,16.265 48.665,16.384 C48.692,16.386 48.713,16.377 48.737,16.373 C47.105,17.626 42.831,14.705 41.611,13.998 C39.042,12.509 36.444,11.104 33.577,10.284 C29.496,9.116 23.841,9.477 22.261,14.058 C20.93,17.919 23.011,25.722 17.303,26.434 C15.102,26.708 12.424,25.172 12.358,22.82 C12.316,21.316 13.518,20.468 14.787,20.028 C15.471,19.791 16.436,19.918 17.151,20.189 C16.285,20.044 15.478,20.44 14.965,21.195 C14.719,21.559 14.636,21.981 14.697,22.365 C14.639,23.322 15.341,24.478 16.54,24.368 C19.284,24.118 20.058,20.434 17.509,19.238 C15.341,18.221 12.209,19.649 11.564,21.899 C10.817,24.498 13.322,26.76 15.743,26.963 C22.041,27.493 21.577,21.901 22.215,17.084 C23.477,20.234 27.218,20.74 30.184,19.318 C30.748,19.047 31.2,18.677 31.545,18.25 C33.055,17.472 34.428,16.414 36.087,15.967 C37.541,15.574 39.361,16.4 39.446,18.075 C39.499,19.095 38.459,19.297 37.769,19.183 C37.199,19.089 36.888,18.582 36.625,18.125 C36.484,17.879 36.171,18.058 36.202,18.301 C36.529,20.799 40.826,20.078 40.114,17.555 C39.693,16.065 38.42,15.334 36.939,15.207 C35.136,15.052 33.454,16.445 31.997,17.531 C32.793,15.849 32.175,13.711 29.963,12.89 C27.016,11.798 23.152,14.318 25.198,17.576 C26.423,19.528 30.125,17.508 28.278,15.641 C28.183,15.544 28.003,15.673 28.086,15.788 C28.966,17.023 27.599,18.012 26.426,17.808 C24.704,17.508 25.091,14.931 25.914,14.02 C27.713,12.029 30.932,13.434 31.761,15.594 C32.563,17.687 29.898,18.983 28.326,19.372 C25.659,20.033 23.201,18.883 22.365,16.18 C22.363,16.172 22.357,16.167 22.354,16.16 C22.7,14.166 23.337,12.392 24.871,11.371 C27.395,9.691 31.329,10.304 34.038,11.09 C36.828,11.9 39.379,13.483 41.873,14.93 C43.508,15.879 48.362,19.048 49.633,16.227 C49.74,15.988 49.538,15.772 49.343,15.776 C49.224,15.733 49.1,15.726 48.965,15.699 C48.671,15.64 48.393,15.517 48.128,15.381 C47.582,15.098 47.057,14.644 46.838,14.056 C46.659,13.576 46.858,12.982 47.38,12.845 C47.843,12.724 48.048,13.037 47.836,13.422 C47.749,13.58 47.944,13.711 48.074,13.606 C48.495,13.267 48.564,12.67 48.006,12.428 C47.428,12.177 46.759,12.523 46.462,13.034 C46.009,13.812 46.535,14.71 47.106,15.253 C44.813,14.109 42.72,11.233 43.392,8.704 C43.857,6.949 46.101,6.66 47.59,6.902 C48.629,7.071 49.568,7.637 49.564,8.807 C49.558,10.744 46.768,9.342 48.095,8.289" fill="#000000"/>
      <path d="M42.189,18.273 C41.358,19.752 42.774,21.627 44.197,20.2 C44.516,19.88 44.045,19.42 43.709,19.708 C43.164,20.176 41.676,18.99 43.281,18.347 C44.389,18.075 45.071,18.589 45.328,19.889 C45.06,20.343 44.706,20.713 44.264,21 C42.726,22.136 40.207,22.002 38.392,21.962 C35.251,21.892 32.228,21.053 29.133,20.684 C27.348,20.471 25.587,20.518 24.358,21.983 C23.43,23.089 23.347,24.998 24.374,26.072 C26.578,28.376 30.301,26.36 28.292,23.415 C26.572,20.895 24.353,24.617 26.004,25.424 C26.22,25.555 26.468,25.642 26.688,25.69 C27.334,25.831 28.126,25.634 28.304,25.087 C28.277,25.821 27.883,26.329 27.109,26.604 C26.388,26.837 25.578,26.371 25.05,25.948 C23.538,24.734 24.22,22.466 25.67,21.559 C27.637,20.328 30.892,21.683 32.98,22.015 C36.76,22.616 43.435,24.237 45.978,20.273 C47.352,18.13 43.207,16.46 42.189,18.273" fill="#000000"/>
      <path d="M22.889,42.96 C21.644,42.015 20.081,41.016 18.384,40.166 C18.372,40.148 18.357,40.131 18.331,40.117 C17.189,39.506 16.307,38.791 15.942,37.494 C15.649,36.455 15.881,35.171 16.858,34.585 C18.26,33.743 20.338,35.107 20.525,36.583 C20.667,37.697 19.182,38.447 18.342,37.774 C17.704,37.262 17.669,36.304 18.59,36.172 C18.818,36.139 18.737,35.818 18.541,35.798 C16.459,35.583 17.13,38.537 18.784,38.759 C19.88,38.906 20.933,38.189 21.238,37.141 C21.576,35.978 20.654,34.812 19.768,34.202 C18.019,32.997 15.685,33.731 15.201,35.801 C14.927,36.973 15.307,38.241 16.082,39.152 C13.703,38.249 11.223,37.776 9.069,38.239 C5.282,39.054 3.093,42.222 4.525,45.988 C5.689,49.049 9.065,50.356 12.113,50.265 C15.136,50.174 17.285,48.172 17.08,45.113 C16.906,42.513 14.187,40.446 11.736,40.201 C8.303,39.858 5.644,43.848 8.362,46.672 C11.443,49.872 15.371,44.672 11.997,43.511 C11.816,43.449 11.689,43.741 11.865,43.821 C14.42,44.982 11.387,47.611 9.579,46.786 C8.489,46.29 8.103,44.891 8.025,43.836 C7.941,42.7 8.595,41.631 9.559,41.098 C11.383,40.092 13.864,41.355 15.166,42.641 C16.986,44.439 16.814,47.54 14.611,48.905 C12.76,50.052 10.09,49.685 8.194,48.877 C5.791,47.85 4.359,45.236 4.749,42.673 C5.401,38.399 10.684,38.379 13.857,39.239 C16.743,40.023 19.537,41.525 22.008,43.188 C23.362,44.098 24.554,45.211 25.533,46.513 C25.975,47.101 26.259,47.729 26.504,48.421 C26.707,49.021 26.76,49.642 26.66,50.284 C25.486,51.73 24.58,52.066 23.941,51.297 C25.947,50.817 24.663,47.691 22.734,48.812 C20.655,50.02 24.292,53.497 26.34,51.857 C29.683,49.181 25.061,44.608 22.889,42.96" fill="#000000"/>
      <path d="M35.123,67.668 C33.553,69.005 31.778,69.885 29.881,70.662 C26.748,71.944 23.396,72.429 20.032,72.515 C16.398,72.609 12.537,71.59 10.505,68.332 C9.177,66.203 9.863,62.474 13.035,63.096 C14.714,63.425 14.872,65.059 13.86,66.232 C12.396,67.928 11.71,64.714 12.667,64.739 C12.832,64.743 12.857,64.506 12.706,64.459 C10.592,63.796 12.528,69.439 14.546,66.139 C14.61,66.034 14.664,65.932 14.713,65.831 C14.994,67.524 15.983,69.131 17.391,70.148 C19.079,71.366 21.519,70.956 23.417,70.642 C26.143,70.192 28.671,69.353 31.192,68.242 C33.516,67.217 35.706,66.078 37.962,65.392 C37.871,65.45 37.779,65.508 37.688,65.57 C36.774,66.184 35.959,66.956 35.123,67.668 M50.243,69.105 C49.487,66.338 46.567,64.861 43.993,64.288 C40.76,63.567 37.874,64.48 34.94,65.786 C32.23,66.993 29.613,68.342 26.768,69.221 C24.095,70.047 20.286,71.007 17.734,69.567 C13.65,67.261 14.893,59.761 20.164,61.325 C21.641,61.764 23.067,62.925 23.484,64.439 C23.799,65.585 22.97,66.657 21.932,67.022 C21.232,67.268 20.435,67.079 19.792,66.78 C17.577,65.75 20.088,62.138 20.989,65.148 C21.094,65.499 21.635,65.354 21.539,64.998 C20.932,62.75 17.952,63.135 18.077,65.504 C18.219,68.198 22.173,68.325 23.597,66.748 C24.658,65.573 24.501,64.24 23.711,63.097 C25.651,64.253 27.759,65.094 30.039,65.249 C31.692,65.362 33.896,64.512 34.091,62.69 C34.282,60.895 32.154,60.069 30.778,60.36 C29.558,60.618 28.95,61.929 30.185,62.582 C30.434,62.714 30.728,62.38 30.499,62.178 C30.452,61.204 30.836,60.773 31.65,60.885 C34.296,60.77 33.158,63.795 31.766,64.326 C30.587,64.775 29.326,64.599 28.129,64.345 C26.151,63.927 24.455,62.772 22.632,61.948 C20.565,60.266 17.175,59.571 15.598,61.773 C15.427,62.012 15.288,62.262 15.164,62.516 C15.148,58.768 14.069,54.06 9.899,53.442 C6.207,52.895 5.154,57.387 6.683,59.87 C8.295,62.487 11.898,61.624 12.273,58.66 C12.713,55.191 7.33,55.625 8.697,58.306 C8.81,58.529 9.139,58.372 9.086,58.144 C9.506,56.411 10.274,56.157 11.391,57.384 C11.768,57.94 11.653,58.732 11.504,59.328 C11.166,60.674 9.545,61.118 8.406,60.621 C6.624,59.844 6.083,57.232 6.918,55.649 C8.655,52.358 12.305,54.844 13.527,57.005 C14.618,58.935 14.663,61.306 14.799,63.493 C14.767,63.617 14.743,63.741 14.721,63.867 C13.661,62.087 9.62,62.049 9.281,65.803 C9.028,68.602 11.714,70.85 13.913,71.96 C17.029,73.534 21.046,73.184 24.379,72.74 C28.12,72.242 32.059,70.832 35.065,68.52 C36.818,67.171 38.333,65.444 40.569,64.914 C41.565,64.678 42.685,64.903 43.594,65.314 C44.237,65.63 44.669,66.14 44.889,66.843 C45.364,68.161 42.686,69.57 42.545,67.017 C42.525,66.658 41.987,66.65 41.984,67.014 C41.961,69.252 45.485,69.816 45.569,67.563 C45.607,66.553 45.136,65.654 44.371,65.068 C44.63,65.129 44.89,65.193 45.154,65.275 C47.346,65.951 49.151,67.449 49.78,69.697 C50.259,71.411 49.562,72.938 48.062,73.832 C47.278,74.3 46.336,74.315 45.475,74.129 C44.856,73.971 44.393,73.654 44.087,73.18 C44.367,73.254 44.679,73.235 44.973,73.095 C45.276,72.951 45.564,72.647 45.615,72.298 C46.523,70.569 44.382,69.368 43.316,70.999 C41.916,73.14 45.123,75.124 46.902,74.786 C49.811,74.232 50.993,71.852 50.243,69.105" fill="#000000"/>
      <path d="M39.44,58.853 C36.828,56.679 31.664,57.454 28.571,57.875 C25.402,58.308 21.32,59.636 18.599,57.298 C17.416,56.281 17.433,54.752 18.933,54.143 C19.429,53.941 19.974,53.952 20.488,54.061 C21.126,54.197 21.938,54.942 21.607,55.313 C21.19,54.826 20.404,54.713 19.817,54.914 C19.678,54.962 19.545,55.035 19.425,55.124 C18.717,55.433 18.708,56.609 19.283,57.398 C20.381,58.904 22.225,57.172 22.411,55.945 C22.869,52.935 18.248,52.563 17.172,54.899 C16.513,56.332 17.997,57.751 19.051,58.451 C21.301,59.945 24.679,59.151 27.13,58.751 C29.486,58.367 31.917,58.185 34.304,58.219 C35.696,58.238 37.114,58.409 38.393,58.984 C39.116,59.307 39.642,59.873 39.937,60.602 C40.161,61.586 39.829,62.293 38.939,62.722 C38.818,62.757 38.697,62.791 38.577,62.826 C38.852,62.53 38.945,62.066 38.792,61.696 C38.737,61.563 38.628,61.423 38.488,61.294 C38.486,61.28 38.489,61.267 38.484,61.252 C37.871,59.199 34.008,61.304 36.303,63.218 C37.562,64.267 39.427,63.387 40.3,62.298 C41.204,61.171 40.375,59.631 39.44,58.853" fill="#000000"/>
      <path d="M11.351,28.989 C10.497,27.397 8.361,25.888 6.49,26.77 C3.449,28.202 8.037,32.828 8.832,29.445 C8.885,29.22 8.59,29.095 8.464,29.288 C7.715,30.445 6.787,29.717 6.433,28.68 C5.768,26.731 8.954,27.507 9.714,28.138 C11.856,29.92 11.655,33.106 12.355,35.525 C12.465,35.904 13.035,35.832 13.04,35.435 C13.07,33.312 12.347,30.844 11.351,28.989" fill="#000000"/>
      <path d="M21.264,31.107 C20.963,30.106 19.583,29.482 18.675,29.241 C15.647,28.439 13.55,31.931 13.542,34.462 C13.541,34.706 13.906,34.761 13.969,34.521 C14.399,32.875 14.97,31.345 16.519,30.458 C17.277,30.024 18.121,29.943 18.935,30.224 C19.488,30.416 21.029,31.27 19.878,31.653 C19.479,31.786 19.562,32.336 19.972,32.369 C20.754,32.433 21.523,31.971 21.264,31.107" fill="#000000"/>
      <path d="M52.18,8.305 C51.957,8.126 52.2,7.762 52.453,7.84 C54.41,8.446 52.591,10.981 51.087,10.494 C50.212,10.211 49.79,9.225 49.986,8.331 C50.296,6.916 51.561,6.385 52.887,6.201 C55.494,5.84 57.903,7.45 57.64,10.207 C57.444,12.261 56.009,14.281 54.156,15.29 C56.515,14.508 58.527,12.89 60.54,11.361 C63.428,9.17 66.257,7.865 69.834,7.184 C74.772,6.244 82.938,7.439 84.944,12.937 C85.541,14.575 85.017,16.894 83.257,17.564 C81.902,18.079 79.835,17.882 79.432,16.165 C79.203,15.187 79.962,12.676 81.443,13.551 C82.789,14.346 82.16,16.048 80.712,16.002 C80.563,15.997 80.525,15.848 80.588,15.754 C79.82,16.193 79.865,16.629 80.743,17.061 C81.165,17.269 81.603,17.356 82.059,17.319 C83.158,17.316 84.081,16.509 84.434,15.516 C85.262,13.193 83.488,11.097 81.738,9.863 C78.181,7.354 73.357,7.057 69.22,7.84 C65.357,8.57 62.534,10.759 59.479,13.054 C57.122,14.825 54.555,16.299 51.547,16.396 C51.52,16.396 51.499,16.388 51.476,16.383 C53.097,17.649 57.394,14.761 58.62,14.064 C61.2,12.595 63.809,11.21 66.682,10.412 C70.772,9.276 76.424,9.68 77.968,14.273 C79.27,18.145 77.128,25.931 82.831,26.687 C85.03,26.978 87.719,25.463 87.804,23.111 C87.857,21.609 86.662,20.751 85.396,20.301 C84.714,20.059 83.748,20.178 83.031,20.443 C83.898,20.305 84.702,20.708 85.209,21.467 C85.453,21.832 85.533,22.255 85.468,22.639 C85.519,23.596 84.808,24.746 83.61,24.628 C80.868,24.356 80.122,20.666 82.681,19.49 C84.857,18.49 87.977,19.942 88.605,22.197 C89.331,24.802 86.809,27.044 84.386,27.229 C78.085,27.71 78.592,22.122 77.991,17.299 C76.705,20.44 72.96,20.917 70.005,19.472 C69.443,19.197 68.994,18.823 68.653,18.394 C67.148,17.604 65.784,16.536 64.128,16.075 C62.677,15.672 60.851,16.483 60.753,18.158 C60.692,19.177 61.73,19.387 62.421,19.279 C62.992,19.189 63.307,18.684 63.574,18.229 C63.716,17.985 64.029,18.166 63.995,18.409 C63.649,20.904 59.358,20.149 60.089,17.632 C60.521,16.145 61.801,15.424 63.283,15.309 C65.086,15.168 66.758,16.574 68.206,17.672 C67.423,15.983 68.057,13.85 70.276,13.046 C73.231,11.976 77.076,14.526 75.005,17.769 C73.764,19.711 70.078,17.662 71.94,15.81 C72.035,15.714 72.214,15.844 72.131,15.958 C71.241,17.186 72.6,18.187 73.775,17.991 C75.499,17.704 75.133,15.124 74.317,14.207 C72.532,12.203 69.303,13.582 68.458,15.736 C67.639,17.822 70.294,19.14 71.862,19.541 C74.525,20.222 76.992,19.091 77.848,16.395 C77.851,16.387 77.856,16.382 77.859,16.374 C77.529,14.378 76.906,12.599 75.38,11.566 C72.869,9.867 68.93,10.45 66.215,11.215 C63.419,12.002 60.856,13.566 58.351,14.994 C56.708,15.93 51.83,19.062 50.581,16.23 C50.475,15.99 50.679,15.776 50.874,15.782 C50.994,15.739 51.117,15.734 51.253,15.708 C51.547,15.651 51.826,15.531 52.092,15.396 C52.641,15.118 53.169,14.668 53.392,14.082 C53.575,13.603 53.381,13.007 52.86,12.866 C52.398,12.741 52.19,13.053 52.399,13.439 C52.485,13.599 52.29,13.728 52.16,13.622 C51.742,13.28 51.678,12.682 52.237,12.444 C52.818,12.198 53.483,12.549 53.776,13.062 C54.224,13.844 53.69,14.738 53.116,15.276 C55.417,14.15 57.532,11.29 56.88,8.756 C56.428,6.997 54.186,6.691 52.695,6.921 C51.655,7.082 50.712,7.641 50.707,8.811 C50.699,10.748 53.499,9.368 52.18,8.305" fill="#000000"/>
      <path d="M58.009,18.335 C58.828,19.82 57.398,21.683 55.986,20.245 C55.669,19.923 56.144,19.467 56.477,19.758 C57.019,20.23 58.516,19.056 56.916,18.4 C55.811,18.119 55.124,18.628 54.858,19.926 C55.122,20.382 55.473,20.755 55.913,21.045 C57.441,22.193 59.962,22.079 61.777,22.053 C64.919,22.007 67.948,21.191 71.046,20.846 C72.832,20.648 74.592,20.708 75.811,22.182 C76.73,23.295 76.798,25.205 75.763,26.271 C73.541,28.557 69.834,26.513 71.866,23.584 C73.605,21.077 75.795,24.816 74.137,25.611 C73.921,25.739 73.673,25.824 73.452,25.871 C72.805,26.006 72.015,25.804 71.841,25.255 C71.862,25.989 72.252,26.501 73.024,26.782 C73.743,27.02 74.556,26.561 75.088,26.141 C76.609,24.94 75.945,22.666 74.502,21.748 C72.544,20.501 69.279,21.831 67.188,22.147 C63.404,22.719 56.717,24.288 54.205,20.305 C52.847,18.152 57.005,16.514 58.009,18.335" fill="#000000"/>
      <path d="M77.117,43.17 C78.369,42.235 79.94,41.247 81.643,40.411 C81.655,40.392 81.671,40.375 81.697,40.362 C82.844,39.761 83.732,39.052 84.107,37.758 C84.407,36.721 84.185,35.435 83.213,34.841 C81.818,33.989 79.729,35.337 79.53,36.811 C79.38,37.924 80.859,38.685 81.704,38.019 C82.347,37.512 82.389,36.555 81.469,36.415 C81.241,36.381 81.324,36.061 81.521,36.042 C83.604,35.843 82.911,38.791 81.255,39.001 C80.158,39.14 79.11,38.414 78.813,37.364 C78.484,36.198 79.416,35.04 80.306,34.436 C82.064,33.245 84.392,33.997 84.86,36.071 C85.125,37.244 84.735,38.51 83.954,39.414 C86.339,38.53 88.823,38.076 90.973,38.556 C94.754,39.4 96.918,42.585 95.457,46.339 C94.27,49.391 90.884,50.672 87.836,50.558 C84.815,50.444 82.681,48.425 82.91,45.367 C83.104,42.769 85.838,40.723 88.291,40.497 C91.727,40.18 94.355,44.191 91.615,46.994 C88.509,50.171 84.622,44.94 88.005,43.805 C88.186,43.744 88.311,44.037 88.135,44.116 C85.57,45.257 88.583,47.91 90.398,47.099 C91.491,46.611 91.888,45.215 91.974,44.161 C92.067,43.026 91.421,41.951 90.461,41.411 C88.645,40.39 86.155,41.634 84.843,42.91 C83.008,44.694 83.156,47.797 85.349,49.178 C87.191,50.34 89.864,49.994 91.765,49.2 C94.177,48.193 95.63,45.589 95.259,43.023 C94.64,38.744 89.358,38.683 86.178,39.519 C83.286,40.28 80.48,41.761 77.996,43.404 C76.636,44.304 75.435,45.407 74.446,46.702 C73.999,47.287 73.71,47.912 73.46,48.602 C73.252,49.201 73.195,49.822 73.289,50.464 C74.453,51.919 75.356,52.262 76.001,51.499 C73.998,51.003 75.307,47.887 77.227,49.023 C79.296,50.247 75.633,53.696 73.597,52.04 C70.275,49.337 74.933,44.801 77.117,43.17" fill="#000000"/>
      <path d="M62.144,65.664 C62.053,65.602 61.962,65.543 61.871,65.485 C64.121,66.188 66.303,67.344 68.619,68.387 C71.131,69.517 73.653,70.375 76.374,70.847 C78.271,71.176 80.708,71.605 82.405,70.399 C83.821,69.393 84.821,67.794 85.116,66.104 C85.164,66.205 85.218,66.308 85.281,66.412 C87.273,69.728 89.253,64.1 87.133,64.747 C86.982,64.793 87.005,65.03 87.17,65.027 C88.127,65.009 87.416,68.218 85.966,66.511 C84.963,65.33 85.134,63.697 86.815,63.381 C89.992,62.784 90.649,66.518 89.305,68.637 C87.247,71.879 83.379,72.868 79.745,72.746 C76.382,72.633 73.034,72.123 69.911,70.817 C68.02,70.025 66.252,69.132 64.692,67.783 C63.862,67.064 63.053,66.285 62.144,65.664 M52.859,74.809 C54.635,75.161 57.858,73.202 56.474,71.05 C55.421,69.411 53.27,70.596 54.165,72.331 C54.213,72.68 54.499,72.987 54.801,73.133 C55.094,73.275 55.406,73.296 55.686,73.224 C55.376,73.696 54.911,74.01 54.291,74.164 C53.428,74.342 52.487,74.32 51.706,73.846 C50.213,72.94 49.528,71.409 50.02,69.698 C50.666,67.455 52.484,65.971 54.68,65.311 C54.945,65.232 55.205,65.17 55.464,65.111 C54.695,65.691 54.217,66.586 54.247,67.596 C54.314,69.85 57.843,69.313 57.837,67.076 C57.836,66.711 57.298,66.715 57.276,67.074 C57.115,69.625 54.448,68.196 54.933,66.882 C55.159,66.181 55.594,65.674 56.239,65.363 C57.152,64.959 58.273,64.743 59.268,64.986 C61.499,65.533 63.001,67.272 64.744,68.634 C67.731,70.969 71.659,72.41 75.397,72.938 C78.726,73.407 82.74,73.788 85.868,72.238 C88.076,71.145 90.779,68.918 90.548,66.118 C90.238,62.361 86.197,62.368 85.124,64.139 C85.102,64.014 85.079,63.889 85.048,63.765 C85.201,61.579 85.265,59.208 86.37,57.287 C87.609,55.135 91.278,52.677 92.989,55.982 C93.813,57.571 93.251,60.179 91.463,60.943 C90.32,61.43 88.703,60.974 88.375,59.625 C88.23,59.029 88.122,58.235 88.503,57.682 C89.629,56.464 90.396,56.723 90.802,58.46 C90.748,58.688 91.075,58.847 91.19,58.625 C92.578,55.955 87.198,55.479 87.611,58.951 C87.964,61.918 91.56,62.81 93.192,60.204 C94.74,57.734 93.721,53.233 90.026,53.752 C85.851,54.338 84.735,59.037 84.691,62.785 C84.569,62.53 84.432,62.279 84.263,62.039 C82.703,59.824 79.308,60.493 77.227,62.159 C75.398,62.969 73.693,64.111 71.712,64.514 C70.513,64.758 69.251,64.924 68.075,64.466 C66.687,63.925 65.573,60.891 68.218,61.027 C69.033,60.92 69.413,61.354 69.359,62.329 C69.128,62.528 69.42,62.865 69.67,62.735 C70.91,62.092 70.311,60.776 69.094,60.508 C67.72,60.206 65.586,61.016 65.763,62.812 C65.943,64.636 68.141,65.503 69.795,65.403 C72.076,65.266 74.191,64.44 76.14,63.3 C75.34,64.436 75.173,65.769 76.225,66.952 C77.637,68.54 81.592,68.443 81.755,65.75 C81.898,63.382 78.921,62.974 78.296,65.218 C78.197,65.573 78.738,65.722 78.846,65.371 C79.77,62.369 82.253,66 80.029,67.013 C79.384,67.307 78.586,67.49 77.888,67.238 C76.852,66.865 76.032,65.787 76.356,64.643 C76.785,63.133 78.22,61.982 79.699,61.556 C84.983,60.032 86.168,67.542 82.066,69.816 C79.503,71.236 75.702,70.247 73.035,69.4 C70.197,68.499 67.59,67.13 64.89,65.902 C61.967,64.573 59.088,63.638 55.849,64.334 C53.27,64.887 50.339,66.341 49.562,69.103 C48.79,71.844 49.954,74.233 52.859,74.809" fill="#000000"/>
      <path d="M59.557,62.373 C60.422,63.468 62.28,64.363 63.546,63.323 C65.857,61.427 62.01,59.292 61.381,61.341 C61.376,61.356 61.379,61.368 61.377,61.383 C61.236,61.51 61.125,61.649 61.069,61.782 C60.914,62.151 61.003,62.615 61.276,62.914 C61.156,62.878 61.036,62.843 60.915,62.807 C60.028,62.371 59.701,61.662 59.933,60.679 C60.234,59.953 60.765,59.391 61.489,59.073 C62.773,58.509 64.192,58.348 65.584,58.339 C67.972,58.324 70.402,58.525 72.754,58.927 C75.202,59.346 78.574,60.167 80.835,58.69 C81.895,57.998 83.39,56.591 82.741,55.153 C81.683,52.808 77.06,53.144 77.494,56.158 C77.671,57.387 79.501,59.133 80.611,57.635 C81.192,56.85 81.193,55.675 80.487,55.36 C80.368,55.27 80.235,55.196 80.096,55.147 C79.511,54.942 78.725,55.048 78.303,55.532 C77.975,55.159 78.794,54.42 79.432,54.289 C79.947,54.184 80.492,54.178 80.986,54.383 C82.482,55.004 82.487,56.533 81.296,57.54 C78.557,59.858 74.486,58.497 71.32,58.041 C68.231,57.595 63.073,56.781 60.444,58.934 C59.503,59.705 58.662,61.238 59.557,62.373" fill="#000000"/>
      <path d="M88.763,29.288 C89.629,27.703 91.777,26.211 93.641,27.107 C96.67,28.563 92.047,33.153 91.279,29.764 C91.228,29.539 91.524,29.416 91.647,29.61 C92.388,30.772 93.321,30.052 93.683,29.018 C94.363,27.073 91.171,27.825 90.407,28.451 C88.25,30.215 88.427,33.403 87.708,35.817 C87.595,36.194 87.026,36.118 87.024,35.721 C87.01,33.598 87.753,31.136 88.763,29.288" fill="#000000"/>
      <path d="M78.834,31.329 C79.142,30.331 80.527,29.717 81.437,29.484 C84.472,28.705 86.542,32.213 86.53,34.744 C86.529,34.989 86.163,35.04 86.103,34.8 C85.685,33.151 85.126,31.616 83.584,30.717 C82.83,30.277 81.986,30.19 81.17,30.465 C80.616,30.652 79.068,31.495 80.215,31.887 C80.613,32.023 80.527,32.572 80.116,32.602 C79.334,32.659 78.568,32.191 78.834,31.329" fill="#000000"/>
    </g>
  </g>
</svg>
