<?xml version="1.0" encoding="UTF-8"?>
<!DOCTYPE svg PUBLIC "-//W3C//DTD SVG 1.1//EN" "http://www.w3.org/Graphics/SVG/1.1/DTD/svg11.dtd">
<svg version="1.1" xmlns="http://www.w3.org/2000/svg" xmlns:xlink="http://www.w3.org/1999/xlink" x="0" y="0" width="1024" height="512" viewBox="0, 0, 1024, 512">
  <g id="Layer_1">
    <path d="M653.187,211.078 C653.187,211.078 658.01,211.412 659.351,212.458 C660.693,213.506 659.95,219.987 659.95,219.987 L648.536,216.025 L653.187,211.078" fill="#4C4942"/>
    <path d="M652.936,208.206 L655.303,210.237 L648.54,216.494 L644.453,213.906 L652.936,208.206" fill="#FFFFFE"/>
    <path d="M732.817,476.793 C689.645,476.793 654.649,441.811 654.649,398.638 C654.649,355.469 689.645,320.476 732.817,320.476 C775.981,320.476 810.975,355.469 810.975,398.638 C810.975,441.811 775.981,476.793 732.817,476.793 z M732.817,312.138 C685.042,312.138 646.313,350.868 646.313,398.638 C646.313,446.408 685.042,485.138 732.817,485.138 C780.588,485.138 819.313,446.408 819.313,398.638 C819.313,350.868 780.588,312.138 732.817,312.138" fill="#4C4942"/>
    <path d="M241.764,441.954 C217.587,406.469 226.755,358.102 262.244,333.925 C297.73,309.75 346.087,318.917 370.268,354.402 C394.443,389.889 385.276,438.255 349.791,462.431 C314.304,486.608 265.94,477.436 241.764,441.954 z M377.125,349.734 C350.368,310.466 296.841,300.319 257.573,327.074 C218.3,353.827 208.154,407.35 234.911,446.622 C261.665,485.896 315.185,496.037 354.461,469.279 C393.731,442.526 403.874,389.007 377.125,349.734" fill="#4C4942"/>
    <path d="M307.553,401.454 L226.14,394.914 L226.176,394.438 L307.589,400.975 L307.553,401.454" fill="#4C4942"/>
    <path d="M732.17,402.663 C731.369,402.663 730.556,402.412 729.867,401.887 C728.912,401.171 706.396,384.012 699.065,364.008 C692.108,345.044 669.246,281.543 669.019,280.905 C668.301,278.91 669.334,276.719 671.327,275.998 C673.318,275.282 675.517,276.313 676.232,278.308 C676.466,278.946 699.318,342.424 706.262,361.363 C712.826,379.27 734.269,395.607 734.486,395.768 C736.175,397.046 736.517,399.449 735.234,401.137 C734.482,402.137 733.333,402.663 732.17,402.663" fill="#4C4942"/>
    <path d="M671.633,283.7 L436.058,406.348 L569.186,405.192 L676.988,299.279 L671.633,283.7 z M424.108,412.202 C422.79,412.202 421.636,411.308 421.321,410.021 C420.995,408.732 421.604,407.394 422.779,406.777 L671.934,277.054 C672.681,276.668 673.554,276.625 674.332,276.936 C675.11,277.247 675.714,277.881 675.984,278.673 L683.011,299.121 C683.376,300.171 683.098,301.331 682.311,302.109 L572.389,410.114 C571.857,410.634 571.144,410.93 570.403,410.94 L424.136,412.202 C424.125,412.202 424.117,412.202 424.108,412.202" fill="#4C4942"/>
    <path d="M315.695,396.824 L424.224,406.446 L566.409,405.216 L530.945,297.628 L315.695,396.824 z M424.108,412.202 C424.024,412.202 423.939,412.196 423.855,412.189 L304.425,401.598 C303.125,401.482 302.065,400.505 301.839,399.225 C301.621,397.942 302.291,396.666 303.474,396.122 L531.469,291.057 C532.213,290.71 533.065,290.703 533.815,291.031 C534.569,291.356 535.146,291.99 535.398,292.766 L573.106,407.162 C573.393,408.033 573.249,408.988 572.712,409.736 C572.174,410.484 571.32,410.93 570.403,410.94 L424.136,412.202 C424.125,412.202 424.119,412.202 424.108,412.202" fill="#4C4942"/>
    <path d="M426.131,411.19 C424.936,411.19 423.814,410.44 423.409,409.248 L385.536,298.662 C385.02,297.159 385.823,295.522 387.324,295.01 C388.828,294.497 390.462,295.296 390.977,296.798 L428.848,407.384 C429.362,408.882 428.563,410.522 427.062,411.035 C426.752,411.143 426.437,411.19 426.131,411.19" fill="#4C4942"/>
    <path d="M304.677,400.653 C304.233,400.653 303.787,400.493 303.425,400.188 C302.622,399.495 302.532,398.282 303.225,397.479 L387.816,299.505 C388.509,298.706 389.72,298.615 390.521,299.307 C391.318,300 391.411,301.212 390.718,302.011 L306.128,399.985 C305.748,400.427 305.213,400.653 304.677,400.653" fill="#4C4942"/>
    <path d="M523.488,283.134 C522.097,283.134 520.893,282.809 519.849,282.164 C516.842,280.313 515.901,276.241 514.817,271.528 C514.314,269.337 512.862,263.881 511.176,257.567 C508.306,246.779 504.723,233.353 503.706,228.056 C502.966,224.191 487.737,220.816 473.98,220.089 C472.657,220.021 471.645,218.891 471.712,217.57 C471.782,216.251 472.906,215.239 474.235,215.303 C481.792,215.704 506.605,217.731 508.414,227.151 C509.401,232.28 512.951,245.614 515.808,256.333 C517.505,262.691 518.968,268.183 519.49,270.453 C520.265,273.813 521.062,277.283 522.363,278.084 C522.902,278.42 523.855,278.428 525.18,278.101 C526.461,277.788 527.76,278.574 528.078,279.861 C528.39,281.146 527.602,282.443 526.321,282.758 C525.297,283.009 524.358,283.134 523.488,283.134" fill="#4C4942"/>
    <path d="M366.83,273.354 C361.8,272.226 355.569,265.698 355.343,256.239 C355.119,246.779 359.394,249.257 382.821,249.257 C406.243,249.257 414.351,249.481 419.083,249.481 C423.808,249.481 417.728,260.967 410.074,264.344 C402.414,267.723 377.605,275.765 366.83,273.354" fill="#4C4942"/>
    <path d="M508.556,269.269 C503.529,268.145 497.294,261.615 497.07,252.153 C496.846,242.694 501.126,245.171 524.546,245.171 C547.971,245.171 556.079,245.397 560.809,245.397 C565.536,245.397 559.456,256.884 551.802,260.263 C544.142,263.64 519.335,271.683 508.556,269.269" fill="#4C4942"/>
    <path d="M532.669,296.545 C531.378,296.545 530.203,295.67 529.878,294.359 L523.169,267.357 C522.786,265.818 523.726,264.257 525.263,263.874 C526.812,263.494 528.369,264.434 528.75,265.971 L535.457,292.975 C535.841,294.516 534.903,296.073 533.361,296.458 C533.13,296.515 532.896,296.545 532.669,296.545" fill="#4C4942"/>
    <path d="M495.729,226.39 C495.477,226.39 495.221,226.372 494.962,226.331 L471.811,222.614 C469.195,222.194 467.418,219.738 467.837,217.122 C468.253,214.508 470.71,212.731 473.329,213.151 L496.479,216.862 C499.095,217.287 500.878,219.744 500.458,222.358 C500.082,224.711 498.041,226.39 495.729,226.39" fill="#4C4942"/>
    <path d="M516.575,284.307 C515.261,284.307 513.966,284.045 512.854,283.269 C510.603,281.691 510.149,278.83 509.524,274.878 C509.185,272.733 508.769,269.396 508.287,265.535 C507.391,258.378 506.278,249.475 505.153,244.154 C503.854,238.003 485.854,236.756 473.485,237.836 C472.154,237.95 471.004,236.978 470.892,235.659 C470.77,234.342 471.748,233.178 473.067,233.064 C478.745,232.565 507.21,230.708 509.841,243.163 C511.007,248.68 512.133,257.695 513.046,264.94 C513.52,268.762 513.934,272.059 514.257,274.123 C514.636,276.49 515.02,278.933 515.599,279.339 C515.739,279.432 516.364,279.709 518.705,279.254 C525.707,277.885 529.954,277.181 529.992,277.173 C531.302,276.957 532.53,277.847 532.748,279.147 C532.965,280.453 532.078,281.689 530.774,281.904 C530.732,281.911 526.547,282.604 519.621,283.956 C518.642,284.148 517.604,284.307 516.575,284.307" fill="#4C4942"/>
    <path d="M496.01,241.265 C495.997,241.265 495.978,241.265 495.963,241.263 L471.837,241.008 C469.187,240.98 467.063,238.81 467.097,236.162 C467.122,233.535 469.259,231.42 471.886,231.42 C471.902,231.42 471.919,231.42 471.936,231.42 L496.063,231.678 C498.712,231.707 500.834,233.875 500.805,236.523 C500.777,239.154 498.637,241.265 496.01,241.265" fill="#4C4942"/>
    <path d="M641.438,223.409 C638.891,223.409 636.772,221.406 636.652,218.834 C636.531,216.192 638.581,213.95 641.222,213.83 L664.647,212.756 C667.261,212.617 669.533,214.681 669.655,217.323 C669.778,219.969 667.732,222.209 665.085,222.331 L641.66,223.405 C641.584,223.407 641.512,223.409 641.438,223.409" fill="#4C4942"/>
    <path d="M643.891,240.697 C641.522,240.697 639.46,238.941 639.143,236.528 C638.796,233.907 640.646,231.496 643.27,231.152 L667.187,227.997 C669.814,227.65 672.217,229.497 672.569,232.122 C672.912,234.746 671.063,237.155 668.442,237.5 L644.525,240.655 C644.31,240.682 644.096,240.697 643.891,240.697" fill="#4C4942"/>
    <path d="M673.578,281.156 C672.618,281.156 671.709,280.573 671.34,279.622 C671.219,279.305 668.318,271.723 666.23,260.795 C664.649,252.482 670.287,246.544 675.746,240.802 C678.531,237.869 681.411,234.839 683.596,231.361 C685.266,228.709 685.587,226.536 684.581,224.717 C682.779,221.454 677.134,219.717 673.751,219.717 C667.802,219.717 643.38,219.886 643.137,219.89 C643.131,219.89 643.126,219.89 643.116,219.89 C641.803,219.89 640.732,218.827 640.721,217.507 C640.709,216.186 641.778,215.106 643.101,215.095 C643.346,215.093 667.787,214.924 673.751,214.924 C677.962,214.924 685.767,216.953 688.778,222.401 C690.082,224.765 690.948,228.679 687.654,233.911 C685.213,237.793 682.166,240.999 679.22,244.103 C673.969,249.631 669.818,254.002 670.947,259.897 C672.944,270.406 675.784,277.822 675.813,277.895 C676.291,279.13 675.676,280.518 674.444,280.995 C674.159,281.105 673.865,281.156 673.578,281.156" fill="#4C4942"/>
    <path d="M671.682,278.916 C670.835,278.916 670.013,278.464 669.575,277.665 C669.482,277.486 659.988,259.468 677.709,247.026 C682.895,243.383 685.462,239.858 684.585,237.597 C683.71,235.346 679.71,233.962 676.988,234.323 C670.53,235.173 643.207,238.932 642.926,238.968 C641.62,239.156 640.405,238.233 640.227,236.923 C640.049,235.61 640.965,234.4 642.275,234.22 C642.55,234.182 669.894,230.423 676.363,229.573 C681.069,228.947 687.29,231.331 689.053,235.858 C690.314,239.104 689.853,244.355 680.465,250.946 C666.285,260.903 673.483,274.798 673.797,275.385 C674.417,276.552 673.981,278.003 672.817,278.631 C672.46,278.825 672.065,278.916 671.682,278.916" fill="#4C4942"/>
    <path d="M388.659,301.147 C387.837,301.147 387.074,300.617 386.821,299.792 L378.14,271.216 C377.831,270.203 378.406,269.132 379.418,268.823 C380.431,268.511 381.504,269.086 381.81,270.1 L390.493,298.673 C390.8,299.687 390.225,300.758 389.215,301.065 C389.029,301.122 388.841,301.147 388.659,301.147" fill="#4C4942"/>
    <path d="M676.116,281.177 C675.942,281.177 675.773,281.078 675.691,280.909 C675.574,280.67 675.668,280.383 675.91,280.267 C684.501,276.066 692.227,273.196 698.437,270.892 C712.993,265.485 721.012,262.505 720.22,250.684 C719.846,245.003 717.488,240.528 713.227,237.394 C699.061,226.972 668.142,234.247 667.832,234.321 C667.566,234.38 667.316,234.22 667.253,233.966 C667.189,233.708 667.346,233.449 667.604,233.389 C668.893,233.079 699.266,225.938 713.796,236.621 C718.297,239.93 720.782,244.642 721.18,250.622 C722.012,263.152 713.268,266.406 698.767,271.791 C692.579,274.087 684.879,276.949 676.331,281.127 C676.261,281.162 676.19,281.177 676.116,281.177" fill="#4C4942"/>
    <path d="M687.104,313.482 C686.899,313.482 686.715,313.353 686.646,313.148 C683.731,304.086 689.889,291.737 696.409,278.665 C703.202,265.043 710.222,250.958 708.274,238.776 C705.857,223.664 668.364,218.87 667.986,218.823 C667.72,218.791 667.532,218.551 667.568,218.288 C667.599,218.026 667.83,217.832 668.106,217.872 C669.676,218.065 706.689,222.806 709.223,238.624 C711.22,251.111 704.126,265.339 697.266,279.092 C690.836,291.984 684.765,304.16 687.558,312.86 C687.641,313.112 687.503,313.38 687.25,313.463 C687.205,313.477 687.153,313.482 687.104,313.482" fill="#4C4942"/>
    <path d="M218.185,392.091 C220.694,345.976 258.881,309.359 305.623,309.359 C351.266,309.359 388.744,344.277 392.824,388.855 L401.241,388.699 C397.064,339.55 355.852,300.955 305.623,300.955 C254.186,300.955 212.207,341.418 209.764,392.255 L218.185,392.091" fill="#4C4942"/>
    <path d="M310.145,400.6 L215.445,388.555 L215.927,384.752 L302.09,395.708 L251.817,323.198 L254.968,321.013 L310.145,400.6" fill="#4C4942"/>
    <path d="M703.695,305.557 C654.498,320.561 626.145,371.508 638.634,420.841 L646.647,418.231 C635.601,373.391 661.441,327.228 706.15,313.592 C724.425,308.019 743.114,308.725 759.912,314.46 L768.701,308.809 C748.79,300.471 725.96,298.765 703.695,305.557" fill="#4C4942"/>
    <path d="M643.471,412.352 L643.036,408.54 L733.007,398.286 L733.445,402.092 L643.471,412.352" fill="#4C4942"/>
    <path d="M584.923,410.809 C584.872,410.228 583.3,396.556 551.361,396.556 C525.37,396.556 313.446,400.808 311.306,400.85 L311.039,387.431 C313.176,387.391 525.239,383.137 551.361,383.137 C597.175,383.137 598.305,409.193 598.329,410.302 L584.916,410.615 C584.916,410.615 584.914,410.685 584.923,410.809" fill="#4C4942"/>
    <path d="M415.273,430.545 C416.452,430.545 417.737,430.948 419.231,431.415 C421.314,432.074 423.907,432.884 427.183,432.884 C427.808,432.884 428.444,432.854 429.076,432.793 C430.691,432.643 432.787,431.66 435.01,430.629 C437.612,429.412 440.302,428.154 442.812,427.928 L444.072,427.814 C448.748,421.473 451.504,410.558 447.484,402.401 C444.124,395.59 436.582,391.985 425.672,391.985 C421.27,391.985 408.707,399.876 407.017,409.776 C405.474,418.842 413.403,429.492 414.99,430.557 C415.072,430.549 415.169,430.545 415.273,430.545 z M320.997,386.415 C316.773,386.415 308.062,393.46 307.931,401.636 C308.174,402.263 311.992,406.454 362.992,420.095 C391.556,427.742 419.903,434.278 425.076,434.951 C425.797,435.048 426.564,435.096 427.348,435.096 C432.954,435.096 439.059,432.647 441.136,430.961 C441.521,430.65 441.895,430.306 442.269,429.94 C440.264,430.289 438.007,431.343 435.822,432.364 C433.442,433.475 431.196,434.522 429.252,434.707 C428.563,434.767 427.867,434.8 427.183,434.8 C423.609,434.8 420.866,433.936 418.658,433.245 C417.162,432.778 415.919,432.377 414.977,432.484 L414.854,432.484 C414.379,432.484 413.747,432.25 412.319,430.566 C408.714,426.289 403.823,417.142 405.134,409.455 C406.902,399.045 419.994,390.072 425.672,390.072 C440.443,390.072 446.622,396.315 449.2,401.547 C453.283,409.824 450.973,420.661 446.546,427.597 L446.673,427.582 L446.673,427.586 C479.349,424.647 520.134,421.234 530.702,420.978 C539.928,420.748 545.23,422.831 550.841,425.035 C556.58,427.288 562.51,429.625 573.393,429.389 C578.809,429.272 583.044,427.489 585.981,424.084 C591.522,417.656 590.901,407.293 590.711,405.201 L574.141,391.881 C563.833,391.659 325.418,386.415 320.997,386.415 z M427.352,437.013 C426.483,437.013 425.632,436.958 424.827,436.855 C418.836,436.068 388.404,428.911 361.433,421.669 C305.932,406.767 305.991,403.018 306.018,401.604 C306.168,392.245 316.026,384.5 320.997,384.5 C325.515,384.5 564.344,389.747 574.511,389.971 L574.834,389.98 L592.526,404.199 L592.576,404.586 C592.64,405.108 594.144,417.55 587.431,425.34 C584.128,429.171 579.42,431.178 573.429,431.309 C562.147,431.542 556.052,429.141 550.143,426.819 C544.708,424.687 539.603,422.681 530.744,422.888 C520.033,423.155 478.01,426.686 445.084,429.649 C444.211,430.743 443.294,431.683 442.347,432.446 C439.995,434.363 433.472,437.013 427.352,437.013" fill="#4C4942"/>
    <path d="M533.743,410.097 C532.902,414.569 532.388,420.83 533.732,422.161 C533.853,422.28 534.447,422.491 535.351,422.491 C536.255,422.491 536.843,422.284 536.959,422.174 C538.286,420.845 537.743,414.634 536.89,410.218 L533.743,410.097 z M535.351,424.41 C534.732,424.41 533.189,424.323 532.38,423.524 C529.713,420.866 531.615,410.887 532.023,408.912 C532.118,408.451 532.541,408.134 532.999,408.149 L537.718,408.333 C538.159,408.35 538.529,408.66 538.616,409.093 C539.028,411.038 540.949,420.902 538.31,423.527 C537.511,424.323 535.977,424.41 535.351,424.41" fill="#4C4942"/>
    <path d="M433.571,430.553 C423.768,434.31 412.775,429.408 409.02,419.605 C405.263,409.795 410.161,398.808 419.968,395.047 C429.771,391.294 440.766,396.192 444.52,406 C448.277,415.805 443.374,426.794 433.571,430.553 z M448.951,405.86 L449.376,404.138 L447.909,403.134 L448.11,401.37 L446.529,400.564 L446.512,398.79 L444.839,398.183 L444.598,396.425 L442.865,396.038 L442.408,394.318 L440.636,394.153 L439.966,392.501 L438.188,392.56 L437.318,391.009 L435.56,391.286 L434.503,389.859 L432.798,390.358 L431.57,389.065 L429.938,389.775 L428.556,388.657 L427.024,389.561 L425.516,388.623 L424.112,389.711 L422.496,388.972 L421.238,390.229 L419.544,389.698 L418.451,391.102 L416.704,390.78 L415.799,392.312 L414.026,392.217 L413.32,393.849 L411.545,393.978 L411.051,395.685 L409.307,396.038 L409.028,397.788 L407.342,398.352 L407.287,400.129 L405.683,400.907 L405.854,402.673 L404.36,403.645 L404.747,405.374 L403.39,406.526 L403.988,408.193 L402.79,409.501 L403.591,411.086 L402.562,412.534 L403.561,414.002 L402.72,415.572 L403.893,416.906 L403.255,418.56 L404.586,419.738 L404.162,421.464 L405.632,422.466 L405.428,424.232 L407.008,425.035 L407.027,426.811 L408.699,427.417 L408.94,429.179 L410.675,429.568 L411.133,431.286 L412.904,431.447 L413.572,433.097 L415.351,433.042 L416.22,434.595 L417.976,434.314 L419.034,435.741 L420.742,435.246 L421.972,436.525 L423.601,435.825 L424.981,436.945 L426.515,436.043 L428.024,436.973 L429.427,435.895 L431.04,436.631 L432.301,435.373 L433.994,435.906 L435.086,434.5 L436.832,434.817 L437.74,433.289 L439.515,433.385 L440.223,431.749 L441.996,431.628 L442.493,429.915 L444.236,429.568 L444.513,427.81 L446.199,427.246 L446.254,425.475 L447.852,424.695 L447.689,422.926 L449.177,421.956 L448.792,420.226 L450.153,419.078 L449.549,417.409 L450.754,416.101 L449.946,414.514 L450.975,413.068 L449.978,411.595 L450.815,410.03 L449.644,408.698 L450.284,407.041 L448.951,405.86" fill="#4C4942"/>
    <path d="M448.997,418.527 L429.262,410.076 L428.865,390.189 C428.882,389.958 428.698,389.755 428.466,389.745 L427.887,389.717 C427.65,389.705 427.453,389.886 427.441,390.119 L425.01,410.021 L405.411,421.305 C405.199,421.401 405.111,421.656 405.212,421.866 L405.47,422.392 C405.569,422.601 405.819,422.688 406.034,422.586 L426.23,414.497 L428.901,414.638 C428.941,414.641 428.973,414.624 429.005,414.621 L448.526,419.883 C448.752,419.957 448.993,419.841 449.071,419.617 L449.26,419.066 C449.336,418.848 449.219,418.607 448.997,418.527" fill="#4C4942"/>
    <path d="M583.416,422.969 C577.353,428.712 567.785,428.45 562.037,422.388 C556.295,416.323 556.555,406.752 562.616,401.01 C568.678,395.265 578.251,395.523 583.999,401.591 C589.739,407.65 589.479,417.227 583.416,422.969 z M587.211,400.142 L587,398.741 L585.612,398.456 L585.227,397.095 L583.82,396.985 L583.266,395.685 L581.852,395.746 L581.142,394.525 L579.75,394.77 L578.887,393.646 L577.537,394.062 L576.542,393.056 L575.25,393.637 L574.139,392.763 L572.937,393.5 L571.728,392.771 L570.623,393.654 L569.327,393.084 L568.345,394.102 L566.988,393.697 L566.138,394.829 L564.742,394.597 L564.04,395.827 L562.628,395.77 L562.087,397.08 L560.676,397.203 L560.304,398.566 L558.924,398.863 L558.719,400.264 L557.386,400.734 L557.362,402.147 L556.099,402.786 L556.255,404.185 L555.084,404.979 L555.408,406.351 L554.344,407.278 L554.841,408.599 L553.899,409.655 L554.564,410.907 L553.759,412.073 L554.571,413.227 L553.92,414.486 L554.873,415.528 L554.385,416.862 L555.458,417.776 L555.141,419.154 L556.325,419.928 L556.181,421.335 L557.449,421.956 L557.487,423.377 L558.823,423.835 L559.032,425.23 L560.42,425.519 L560.807,426.88 L562.216,426.99 L562.77,428.288 L564.181,428.226 L564.894,429.444 L566.286,429.207 L567.146,430.329 L568.497,429.915 L569.49,430.921 L570.781,430.34 L571.893,431.21 L573.095,430.471 L574.31,431.2 L575.415,430.32 L576.708,430.889 L577.691,429.868 L579.05,430.28 L579.899,429.146 L581.294,429.378 L581.994,428.15 L583.409,428.203 L583.95,426.897 L585.356,426.779 L585.73,425.407 L587.11,425.111 L587.313,423.71 L588.646,423.237 L588.673,421.828 L589.931,421.194 L589.777,419.792 L590.949,419.002 L590.626,417.622 L591.689,416.695 L591.192,415.374 L592.133,414.317 L591.471,413.068 L592.274,411.906 L591.463,410.746 L592.112,409.493 L591.163,408.445 L591.647,407.12 L590.577,406.2 L590.892,404.82 L589.709,404.045 L589.855,402.638 L588.583,402.014 L588.549,400.6 L587.211,400.142" fill="#4C4942"/>
    <path d="M591.095,409.432 L574.021,409.226 L567.683,394.726 C567.618,394.552 567.427,394.462 567.252,394.525 L566.815,394.677 C566.639,394.743 566.548,394.937 566.612,395.112 L570.878,410.478 L559.898,424.729 C559.775,424.87 559.79,425.08 559.928,425.206 L560.276,425.515 C560.416,425.64 560.627,425.629 560.752,425.486 L573.137,413.404 L575.145,412.69 C575.172,412.679 575.193,412.665 575.217,412.642 L591.165,410.571 C591.351,410.562 591.49,410.401 591.48,410.215 L591.454,409.751 C591.442,409.565 591.283,409.423 591.095,409.432" fill="#4C4942"/>
    <path d="M405.649,462.705 C405.417,462.705 405.178,462.661 404.946,462.568 C403.963,462.179 403.481,461.063 403.868,460.083 L442.214,363.26 C442.605,362.275 443.719,361.794 444.703,362.183 C445.688,362.573 446.172,363.685 445.779,364.668 L407.435,461.486 C407.135,462.245 406.416,462.705 405.649,462.705" fill="#4C4942"/>
    <path d="M452.987,366.345 C452.987,366.612 452.755,366.823 452.469,366.823 L436.977,366.823 C436.694,366.823 436.46,366.612 436.46,366.345 L436.46,359.596 C436.46,359.332 436.694,359.118 436.977,359.118 L452.469,359.118 C452.755,359.118 452.987,359.332 452.987,359.596 L452.987,366.345" fill="#4C4942"/>
    <path d="M411.53,467.189 C411.452,467.447 411.173,467.582 410.894,467.504 L396.043,463.102 C395.77,463.02 395.608,462.747 395.683,462.494 L397.6,456.023 C397.674,455.77 397.961,455.632 398.232,455.713 L413.088,460.117 C413.358,460.195 413.521,460.467 413.451,460.725 L411.53,467.189" fill="#4C4942"/>
    <path d="M551.361,462.705 C551.124,462.705 550.887,462.661 550.655,462.568 C549.674,462.179 549.19,461.063 549.577,460.083 L587.925,363.26 C588.314,362.275 589.43,361.79 590.413,362.183 C591.397,362.573 591.881,363.685 591.49,364.668 L553.144,461.486 C552.846,462.245 552.126,462.705 551.361,462.705" fill="#4C4942"/>
    <path d="M596.26,368.903 C596.169,369.152 595.884,369.279 595.613,369.181 L581.003,364.027 C580.736,363.93 580.588,363.651 580.677,363.402 L582.919,357.043 C583.008,356.794 583.3,356.669 583.568,356.758 L598.177,361.914 C598.447,362.016 598.595,362.29 598.506,362.544 L596.26,368.903" fill="#4C4942"/>
    <path d="M556.646,466.87 C556.578,467.12 556.303,467.278 556.023,467.213 L540.987,463.481 C540.71,463.417 540.539,463.147 540.598,462.895 L542.223,456.349 C542.291,456.091 542.564,455.941 542.84,456.008 L557.882,459.736 C558.159,459.798 558.33,460.07 558.265,460.324 L556.646,466.87" fill="#4C4942"/>
    <path d="M411.862,456.27 C411.991,455.897 412.086,455.62 412.181,455.343 C409.599,454.567 408.316,454.523 407.972,451.531 C407.708,451.621 407.448,451.721 407.15,451.827 C407.359,452.37 407.553,452.872 407.742,453.367 C407.722,453.375 407.703,453.375 407.682,453.392 C406.596,452.486 405.377,451.429 404.747,450.749 C403.46,449.365 402.366,439.352 402.366,439.059 C402.366,438.809 400.075,436.406 399.335,435.631 C399.213,435.2 399.092,434.763 398.963,434.334 C398.688,433.399 398.395,432.476 398.021,431.242 C396.451,432.413 395.009,433.376 393.708,434.5 C392.488,435.557 392.091,437.004 392.028,438.642 C391.958,440.398 391.747,442.182 391.307,443.872 C390.618,446.556 389.671,449.164 388.879,451.814 C388.778,452.148 388.942,452.564 388.983,452.946 C389.16,452.921 389.338,452.892 389.513,452.862 C389.64,452.501 389.767,452.125 389.896,451.757 C391.001,448.581 392.108,445.404 393.205,442.23 C393.722,440.755 394.853,440.472 395.859,441.671 C396.366,442.281 396.704,443.101 396.903,443.879 C397.64,446.789 398.209,449.747 399.003,452.64 C399.295,453.703 399.851,454.81 400.603,455.597 C402.154,457.211 404.119,458.284 406.307,458.827 C407.991,459.235 409.713,459.497 411.429,459.759 C412.412,459.907 413.407,459.943 414.404,460.028 C414.495,459.876 414.584,459.728 414.681,459.584 C413.69,458.418 412.697,457.253 411.862,456.27" fill="#4C4942"/>
    <path d="M651.913,227.377 C651.913,227.377 656.733,227.707 658.075,228.755 C659.415,229.801 658.675,236.282 658.675,236.282 L647.258,232.32 L651.913,227.377" fill="#4C4942"/>
    <path d="M651.755,225.452 L654.121,227.483 L647.355,233.736 L643.27,231.152 L651.755,225.452" fill="#FFFFFE"/>
    <path d="M405.364,148.359 C405.364,148.359 435.94,188.63 444.564,199.177 C453.19,209.72 482.72,218.863 482.72,218.863 L486.236,218.863 C486.236,218.863 454.154,199.815 451.276,197.258 C448.401,194.701 420.381,141.009 415.273,140.373 C410.157,139.732 405.364,148.359 405.364,148.359" fill="#4C4942"/>
    <path d="M390.576,39.068 C390.576,39.068 403.431,36.687 411.055,38.591 C418.675,40.495 423.43,48.594 422.483,56.213 C421.526,63.833 430.101,70.502 430.101,70.502 L429.144,73.834 C429.144,73.834 428.671,81.928 429.144,85.736 C429.622,89.55 429.622,93.356 425.816,93.356 C422.006,93.356 412.959,90.501 412.49,95.264 C412.004,100.023 409.629,116.217 413.437,121.458 C417.242,126.696 427.246,136.218 432.483,139.551 C437.723,142.887 441.536,151.442 441.054,157.177 C440.483,164.089 433.541,170.429 430.67,177.311 C428.077,183.531 423.683,200.121 423.683,200.121 L396.766,176.697 C396.766,176.697 379.625,152.409 386.768,139.551 C393.906,126.696 399.627,102.407 395.335,95.264 C391.049,88.12 385.494,88.056 382.952,81.926 C381.045,77.307 376.642,63.721 376.642,63.721 C376.642,63.721 355.659,71.516 354.265,54.332 C351.778,23.771 381.525,36.687 381.525,36.687 L390.576,39.068" fill="#4C4942"/>
    <path d="M425.556,200.388 C426.141,191.313 428.32,183.505 430.911,177.293 C433.776,170.406 440.72,164.074 441.295,157.156 C441.756,151.598 437.918,143.194 432.941,139.663 C430.205,144.064 421.538,153.517 395.937,155.939 C392.541,156.264 389.498,156.553 386.743,156.813 C386.743,156.813 387.527,159.366 389.107,163.764 C392.841,174.157 398.807,193.63 393.422,205.305 C385.751,221.921 376.745,249.162 378.714,249.253 C390.202,249.794 387.67,288.387 381.918,306.918 C376.164,325.451 336.541,393.194 315.452,408.531 C294.362,423.867 412.595,449.434 438.155,439.209 C438.155,439.209 465.635,400.154 470.747,380.73 C485.131,326.091 489.92,272.408 463.745,261.518 C456.074,258.329 435.207,259.242 428.178,249.016 C421.148,238.786 424.681,213.939 425.556,200.388" fill="#FFFFFE"/>
    <path d="M384.803,45.541 C384.803,45.541 386.142,94.567 289.582,47.555 C159.428,-15.805 69.706,93.312 69.706,93.312 C69.706,93.312 137.064,126.669 9,180.488 C9,180.488 60.63,208.314 116.731,192.028 C193.459,169.753 212.026,127.675 268.955,111.587 C334.652,93.018 374.08,70.882 377.187,67.729 C384.874,59.944 384.803,45.541 384.803,45.541" fill="#FFFFFE"/>
    <path d="M412.124,114.049 C412.124,114.725 411.577,115.27 410.894,115.27 C410.216,115.27 409.667,114.725 409.667,114.049 C409.667,113.364 410.216,112.817 410.894,112.817 C411.577,112.817 412.124,113.364 412.124,114.049" fill="#FFFFFE"/>
    <path d="M409.808,114.847 C409.808,115.52 409.254,116.077 408.574,116.077 C407.896,116.077 407.348,115.52 407.348,114.847 C407.348,114.165 407.896,113.615 408.574,113.615 C409.254,113.615 409.808,114.165 409.808,114.847" fill="#FFFFFE"/>
    <path d="M407.368,115.19 C407.368,115.866 406.822,116.416 406.137,116.416 C405.461,116.416 404.912,115.866 404.912,115.19 C404.912,114.505 405.461,113.958 406.137,113.958 C406.822,113.958 407.368,114.505 407.368,115.19" fill="#FFFFFE"/>
    <path d="M404.895,115.416 C404.895,116.094 404.345,116.642 403.669,116.642 C402.991,116.642 402.441,116.094 402.441,115.416 C402.441,114.738 402.991,114.188 403.669,114.188 C404.345,114.188 404.895,114.738 404.895,115.416" fill="#FFFFFE"/>
    <path d="M402.461,115.416 C402.461,116.094 401.913,116.642 401.231,116.642 C400.561,116.642 400.007,116.094 400.007,115.416 C400.007,114.738 400.561,114.188 401.231,114.188 C401.913,114.188 402.461,114.738 402.461,115.416" fill="#FFFFFE"/>
    <path d="M399.988,115.26 C399.988,115.942 399.441,116.491 398.762,116.491 C398.086,116.491 397.537,115.942 397.537,115.26 C397.537,114.585 398.086,114.034 398.762,114.034 C399.441,114.034 399.988,114.585 399.988,115.26" fill="#FFFFFE"/>
    <path d="M397.554,114.89 C397.554,115.562 397.006,116.111 396.328,116.111 C395.65,116.111 395.098,115.562 395.098,114.89 C395.098,114.203 395.65,113.649 396.328,113.649 C397.006,113.649 397.554,114.203 397.554,114.89" fill="#FFFFFE"/>
    <path d="M396.296,153.223 C396.296,153.223 426.331,196.36 434.961,206.903 C443.586,217.449 476.18,236.299 476.18,236.299 L479.694,236.299 C479.694,236.299 444.547,207.541 441.671,204.984 C438.795,202.427 411.315,145.871 406.201,145.233 C401.089,144.589 396.296,153.223 396.296,153.223" fill="#4C4942"/>
    <path d="M470.271,230.298 C470.271,230.298 475.078,229.797 476.581,230.598 C478.081,231.399 478.46,237.91 478.46,237.91 L471.837,236.813 L470.271,230.298" fill="#4C4942"/>
    <path d="M474.648,212.393 C474.648,212.393 479.468,212.727 480.807,213.773 C482.151,214.821 481.408,221.3 481.408,221.3 L475.064,219.081 L474.648,212.393" fill="#4C4942"/>
    <path d="M526.347,440.048 C526.347,440.048 523.471,450.533 523.688,451.233 C523.688,451.233 533.678,454.067 534.402,454.242 L534.69,452.803 C534.69,452.803 535.862,454.669 536.944,454.967 C541.729,456.266 555.708,460.14 561.082,461.712 C563.005,462.276 565.018,460.934 565.196,460.237 C565.973,457.302 563.319,456.165 559.473,455.214 C544.829,451.586 541.667,443.978 541.667,443.978 L526.347,440.048" fill="#4C4942"/>
    <path d="M573.706,341.828 L569.746,353.586 C569.746,353.586 576.818,356.059 577.52,356.232 L577.795,354.845 C577.795,354.845 578.927,356.646 579.974,356.933 C584.595,358.184 598.094,361.929 603.295,363.45 C605.15,363.991 607.09,362.692 607.267,362.02 C608.014,359.186 605.456,358.089 601.737,357.17 C587.592,353.666 585.966,346.904 585.966,346.904 L573.706,341.828" fill="#4C4942"/>
    <path d="M575.274,334.263 C573.232,307.954 565.973,279.576 565.973,275.603 C565.973,275.389 565.974,275.148 565.974,274.918 L595.083,283.946 L575.274,334.263 z M603.295,186.331 C603.314,186.354 603.337,186.375 603.36,186.398 C614.736,197.298 645.831,214.854 645.831,214.854 L654.366,208.693 C654.366,208.693 621.371,178.338 613.313,171.225 C608.094,166.621 591.924,143.306 581.188,127.459 C576.305,112.016 569.145,101.513 569.145,101.513 L570.149,91.279 C570.149,91.279 571.986,90.229 578.291,92.72 C584.595,95.22 585.229,90.258 585.768,86.767 C586.302,83.266 590.362,75.698 590.362,75.698 C590.362,75.698 596.021,77.025 595.487,74.318 C594.907,71.366 592.71,67.227 594.185,62.911 C595.662,58.594 595.396,45.332 595.396,45.332 C595.396,45.332 596.025,36.253 591.294,32.391 C586.548,28.53 574.354,26.214 556.054,31.129 C537.756,36.05 545.657,58.081 549.188,66.571 C552.715,75.058 549.421,85.48 549.421,85.48 L548.768,85.385 C548.768,85.385 544.934,89.827 542.008,93.745 C539.091,97.667 530.601,101.198 521.248,112.922 C516.21,119.243 511.136,163.548 511.073,204.944 C511.07,208.139 511.155,211.11 511.324,213.885 C511.121,214.542 511.011,214.891 511.011,214.891 L511.705,218.597 C512.349,225.129 513.442,230.408 514.692,234.607 L519.959,262.82 L551.498,348.275 L525.624,441.869 L545.046,447.118 C545.046,447.118 569.169,387.439 574.278,363.799 C575.546,357.929 575.935,350.968 575.76,343.565 L587.505,347.546 C587.505,347.546 632.091,274.88 626.043,267.294 C621.969,262.192 599.721,249.184 582.961,239.803 C583.346,225.659 583.82,208.728 584.299,193.311 C591.79,201.425 598.424,208.456 601.938,211.824 C613.316,222.724 643.883,232.419 643.883,232.419 L653.094,225.48 C653.094,225.48 619.953,203.765 611.893,196.656 C610.097,195.071 607.008,191.273 603.295,186.331" fill="#4C4942"/>
    <path d="M569.145,101.513 L569.407,98.808 C569.164,98.062 569.164,98.06 569.164,98.06 C564.769,93.973 553.313,87.555 549.436,85.432 C549.431,85.444 549.421,85.48 549.421,85.48 L548.768,85.385 C548.768,85.385 547.297,87.089 545.482,89.316 C546.737,90.083 549.146,91.476 553.503,93.764 C557.635,95.941 564.169,99.148 569.19,101.577 C569.162,101.538 569.145,101.513 569.145,101.513" fill="#FFFFFE"/>
  </g>
</svg>
