<?xml version="1.0" encoding="UTF-8"?>
<!DOCTYPE svg PUBLIC "-//W3C//DTD SVG 1.1//EN" "http://www.w3.org/Graphics/SVG/1.1/DTD/svg11.dtd">
<svg version="1.1" xmlns="http://www.w3.org/2000/svg" xmlns:xlink="http://www.w3.org/1999/xlink" x="0" y="0" width="22.838" height="21.798" viewBox="0, 0, 22.838, 21.798">
  <g id="Layer_1" transform="translate(-286.197, -577.654)">
    <g>
      <path d="M299.126,598.43 C299.342,598.233 304.503,593.509 307.283,589.825 C309.22,587.258 309.573,584.171 308.226,581.56 C306.971,579.12 304.427,577.586 301.741,577.657 C300.272,577.698 298.837,578.192 297.524,579.105 C296.143,578.25 294.658,577.823 293.165,577.862 C290.437,577.933 287.947,579.613 286.822,582.134 C285.627,584.81 286.165,587.873 288.255,590.331 C291.242,593.836 296.614,598.298 296.84,598.488 L298.004,599.453 L299.126,598.43" fill="#BE3C3C"/>
    </g>
  </g>
</svg>
