<?xml version="1.0" encoding="UTF-8"?>
<!DOCTYPE svg PUBLIC "-//W3C//DTD SVG 1.1//EN" "http://www.w3.org/Graphics/SVG/1.1/DTD/svg11.dtd">
<svg version="1.1" xmlns="http://www.w3.org/2000/svg" xmlns:xlink="http://www.w3.org/1999/xlink" x="0" y="0" width="74.187" height="53.091" viewBox="0, 0, 74.187, 53.091">
  <g id="Layer_1" transform="translate(-261.875, -742.183)">
    <g>
      <path d="M335.268,787.896 C333.153,787.92 330.964,787.935 328.863,788.18 C328.853,788.181 328.847,788.186 328.838,788.187 C327.755,787.427 326.668,786.671 325.584,785.913 C327.553,786.232 329.562,786.544 331.469,786.464 C332.246,786.431 332.416,785.332 331.653,785.101 C328.88,784.261 325.654,784.22 322.781,783.851 C322.735,783.845 322.688,783.85 322.643,783.857 C321.412,782.998 320.178,782.143 318.947,781.286 C320.926,781.388 322.893,781.57 324.88,781.722 C325.681,781.784 325.872,780.455 325.071,780.308 C322.304,779.801 319.442,779.691 316.632,779.675 C309.768,774.902 302.897,770.138 296.034,765.363 C285.913,758.321 275.995,750.799 265.6,744.143 C267.809,744.701 270.038,745.262 272.24,745.617 C273.207,745.773 273.563,744.508 272.644,744.151 C269.573,742.96 265.852,742.451 262.574,742.185 C262.173,742.152 261.968,742.522 262.001,742.858 C261.871,743.043 261.821,743.282 261.954,743.507 C262.773,744.894 263.663,746.239 264.482,747.626 C265.229,748.892 265.841,750.29 266.76,751.438 C267.191,751.977 268.119,751.396 267.908,750.77 C267.413,749.3 266.43,747.948 265.605,746.64 C265.258,746.09 264.905,745.544 264.544,745.003 C274.385,752.462 284.868,759.172 294.986,766.23 C301.881,771.041 308.769,775.861 315.664,780.672 C316.519,783.823 317.706,787.031 319.664,789.675 C320.057,790.207 320.795,789.764 320.54,789.163 C319.541,786.801 318.51,784.507 317.703,782.095 C319.17,783.117 320.635,784.144 322.104,785.165 C323.185,787.802 324.234,790.461 325.494,793.019 C325.811,793.664 326.881,793.214 326.658,792.528 C326.034,790.609 325.295,788.729 324.541,786.857 C325.672,787.643 326.802,788.43 327.935,789.213 C327.936,789.259 327.942,789.305 327.953,789.354 C328.18,790.389 328.485,791.402 328.895,792.38 C329.275,793.289 329.672,794.478 330.466,795.097 C331.015,795.523 331.692,795.13 331.592,794.441 C331.463,793.549 330.828,792.741 330.442,791.932 C330.047,791.105 329.672,790.271 329.316,789.427 C329.352,789.375 329.38,789.317 329.403,789.257 C331.139,789.425 332.918,789.459 334.664,789.476 C334.667,789.479 334.67,789.483 334.674,789.486 C334.935,789.683 335.185,789.707 335.485,789.591 C335.823,789.461 336.034,789.214 336.053,788.845 C336.056,788.793 336.059,788.741 336.062,788.69 C336.084,788.265 335.68,787.892 335.268,787.896" fill="#4C4941"/>
      <path d="M262.67,787.896 C264.784,787.92 266.974,787.935 269.075,788.18 C269.084,788.181 269.091,788.186 269.1,788.187 C270.183,787.427 271.27,786.671 272.354,785.913 C270.385,786.232 268.376,786.544 266.469,786.464 C265.692,786.431 265.522,785.332 266.285,785.101 C269.058,784.261 272.284,784.22 275.157,783.851 C275.203,783.845 275.25,783.85 275.295,783.857 C276.526,782.998 277.76,782.143 278.991,781.286 C277.012,781.388 275.045,781.57 273.058,781.722 C272.257,781.784 272.066,780.455 272.867,780.308 C275.634,779.801 278.496,779.691 281.306,779.675 C288.17,774.902 295.041,770.138 301.904,765.363 C312.025,758.321 321.943,750.799 332.338,744.143 C330.129,744.701 327.9,745.262 325.698,745.617 C324.731,745.773 324.375,744.508 325.294,744.151 C328.365,742.96 332.086,742.451 335.364,742.185 C335.765,742.152 335.97,742.522 335.937,742.858 C336.067,743.043 336.117,743.282 335.984,743.507 C335.165,744.894 334.275,746.239 333.456,747.626 C332.709,748.892 332.096,750.29 331.178,751.438 C330.747,751.977 329.819,751.396 330.03,750.77 C330.525,749.3 331.508,747.948 332.333,746.64 C332.68,746.09 333.033,745.544 333.394,745.003 C323.553,752.462 313.07,759.172 302.952,766.23 C296.057,771.041 289.168,775.861 282.274,780.672 C281.419,783.823 280.232,787.031 278.274,789.675 C277.881,790.207 277.143,789.764 277.397,789.163 C278.397,786.801 279.428,784.507 280.235,782.095 C278.768,783.117 277.303,784.144 275.834,785.165 C274.753,787.802 273.703,790.461 272.444,793.019 C272.127,793.664 271.057,793.214 271.28,792.528 C271.904,790.609 272.643,788.729 273.397,786.857 C272.265,787.643 271.136,788.43 270.003,789.213 C270.001,789.259 269.996,789.305 269.985,789.354 C269.758,790.389 269.453,791.402 269.043,792.38 C268.663,793.289 268.266,794.478 267.472,795.097 C266.923,795.523 266.246,795.13 266.346,794.441 C266.475,793.549 267.11,792.741 267.496,791.932 C267.891,791.105 268.266,790.271 268.622,789.427 C268.586,789.375 268.558,789.317 268.535,789.257 C266.799,789.425 265.02,789.459 263.274,789.476 C263.27,789.479 263.268,789.483 263.264,789.486 C263.003,789.683 262.753,789.707 262.453,789.591 C262.115,789.461 261.904,789.214 261.885,788.845 C261.882,788.793 261.879,788.741 261.876,788.69 C261.854,788.265 262.258,787.892 262.67,787.896" fill="#4C4941"/>
      <path d="M269.688,775.648 Q268.643,775.648 267.753,775.247 Q267.175,775.003 266.674,774.58 Q266.174,774.157 265.818,773.646 Q265.128,772.533 265.195,771.265 Q265.239,770.643 265.473,770.053 Q265.706,769.464 266.129,768.974 Q266.307,768.752 266.574,768.729 Q266.841,768.707 267.063,768.885 Q267.286,769.063 267.308,769.341 Q267.33,769.619 267.152,769.819 Q266.596,770.509 266.529,771.354 Q266.463,772.177 266.952,772.911 Q267.442,773.646 268.287,774.024 Q269.154,774.402 270.133,774.291 Q271.09,774.157 271.802,773.557 Q272.491,773 272.736,772.155 Q272.936,771.354 272.625,770.554 Q272.313,769.775 271.535,769.241 Q271.09,768.952 270.545,768.774 Q270,768.596 269.399,768.44 L269.399,768.418 Q268.821,768.262 268.153,768.04 Q267.486,767.817 266.885,767.417 Q266.418,767.083 266.051,766.65 Q265.684,766.216 265.462,765.704 Q264.995,764.703 265.173,763.546 Q265.373,762.412 266.129,761.567 Q266.93,760.699 268.042,760.343 Q268.576,760.165 269.154,760.121 Q269.733,760.076 270.311,760.187 Q271.468,760.388 272.38,761.122 Q273.292,761.878 273.67,762.946 Q273.848,763.457 273.87,764.013 Q273.893,764.57 273.737,765.104 Q273.67,765.37 273.437,765.515 Q273.203,765.66 272.936,765.593 Q272.669,765.526 272.525,765.281 Q272.38,765.037 272.447,764.77 Q272.647,764.08 272.402,763.368 Q272.158,762.657 271.535,762.167 Q270.89,761.633 270.089,761.5 Q269.266,761.366 268.443,761.611 Q267.62,761.9 267.13,762.456 Q266.618,763.035 266.485,763.769 Q266.374,764.503 266.685,765.17 Q266.997,765.86 267.642,766.305 Q268.087,766.616 268.654,766.805 Q269.221,766.994 269.755,767.15 L269.777,767.15 Q270.422,767.328 271.056,767.539 Q271.69,767.751 272.269,768.129 Q272.803,768.507 273.214,768.996 Q273.626,769.486 273.87,770.064 Q274.36,771.265 274.004,772.511 Q273.848,773.089 273.503,773.634 Q273.159,774.179 272.669,774.58 Q271.646,775.425 270.311,775.603 Q270.155,775.625 270,775.637 Q269.844,775.648 269.688,775.648 z" fill="#4C4941"/>
      <path d="M332.011,774.736 Q332.1,775.003 331.988,775.247 Q331.877,775.492 331.61,775.603 Q331.477,775.648 331.388,775.648 Q330.921,775.648 330.765,775.203 L328.963,770.442 L323.09,770.442 L321.289,775.203 Q321.177,775.47 320.933,775.592 Q320.688,775.714 320.421,775.603 Q320.176,775.492 320.054,775.247 Q319.932,775.003 320.043,774.736 L325.404,760.543 Q325.56,760.121 326.027,760.121 Q326.227,760.121 326.394,760.243 Q326.561,760.365 326.65,760.543 z M328.452,769.108 L326.027,762.679 L323.58,769.108 z" fill="#4C4941"/>
      <g>
        <path d="M299.126,778.003 C299.342,777.806 304.503,773.083 307.283,769.398 C309.22,766.832 309.573,763.745 308.226,761.133 C306.971,758.694 304.427,757.159 301.741,757.231 C300.272,757.271 298.837,757.765 297.524,758.679 C296.143,757.823 294.658,757.396 293.165,757.436 C290.437,757.507 287.947,759.187 286.822,761.708 C285.627,764.384 286.165,767.446 288.255,769.905 C291.242,773.41 296.614,777.872 296.84,778.061 L298.004,779.026 L299.126,778.003" fill="#BE3C3C"/>
      </g>
    </g>
  </g>
</svg>
