<?xml version="1.0" encoding="UTF-8"?>
<!DOCTYPE svg PUBLIC "-//W3C//DTD SVG 1.1//EN" "http://www.w3.org/Graphics/SVG/1.1/DTD/svg11.dtd">
<svg version="1.1" xmlns="http://www.w3.org/2000/svg" xmlns:xlink="http://www.w3.org/1999/xlink" x="0" y="0" width="158.305" height="159.679" viewBox="0, 0, 158.305, 159.679">
  <g id="Layer_1" transform="translate(-653.661, -320.274)">
    <g>
      <path d="M735.34,401.48 L722.698,320.35 L723.175,320.274 L735.819,401.404 L735.34,401.48" fill="#4C4942"/>
      <path d="M730.284,401.48 L729.811,401.404 L742.455,320.274 L742.93,320.35 L730.284,401.48" fill="#4C4942"/>
      <path d="M723.175,478.579 L722.698,478.504 L735.34,397.375 L735.819,397.447 L723.175,478.579" fill="#4C4942"/>
      <path d="M742.455,478.579 L729.811,397.447 L730.284,397.375 L742.93,478.504 L742.455,478.579" fill="#4C4942"/>
      <path d="M736.029,399.94 L684.513,335.999 L684.887,335.698 L736.403,399.636 L736.029,399.94" fill="#4C4942"/>
      <path d="M731.204,402.64 L701.588,326.056 L702.037,325.883 L731.651,402.468 L731.204,402.64" fill="#4C4942"/>
      <path d="M763.591,472.972 L733.975,396.384 L734.429,396.205 L764.038,472.794 L763.591,472.972" fill="#4C4942"/>
      <path d="M780.741,463.155 L729.225,399.215 L729.601,398.913 L781.115,462.853 L780.741,463.155" fill="#4C4942"/>
      <path d="M735.851,398.266 L659.273,368.647 L659.443,368.197 L736.029,397.814 L735.851,398.266" fill="#4C4942"/>
      <path d="M733.023,403.014 L669.085,351.504 L669.388,351.126 L733.324,402.64 L733.023,403.014" fill="#4C4942"/>
      <path d="M796.236,447.727 L732.301,396.209 L732.603,395.831 L796.541,447.347 L796.236,447.727" fill="#4C4942"/>
      <path d="M806.181,430.654 L729.601,401.035 L729.775,400.585 L806.356,430.202 L806.181,430.654" fill="#4C4942"/>
      <path d="M653.733,409.543 L653.661,409.066 L734.79,396.424 L734.865,396.903 L653.733,409.543" fill="#4C4942"/>
      <path d="M734.79,402.43 L653.661,389.783 L653.733,389.31 L734.865,401.953 L734.79,402.43" fill="#4C4942"/>
      <path d="M811.891,409.543 L730.763,396.903 L730.834,396.424 L811.965,409.066 L811.891,409.543" fill="#4C4942"/>
      <path d="M730.834,402.43 L730.759,401.953 L811.891,389.31 L811.965,389.783 L730.834,402.43" fill="#4C4942"/>
      <path d="M669.388,447.727 L669.085,447.347 L733.023,395.831 L733.324,396.209 L669.388,447.727" fill="#4C4942"/>
      <path d="M659.443,430.65 L659.273,430.202 L735.851,400.589 L736.029,401.035 L659.443,430.65" fill="#4C4942"/>
      <path d="M729.775,398.266 L729.601,397.814 L806.181,368.197 L806.356,368.647 L729.775,398.266" fill="#4C4942"/>
      <path d="M732.599,403.014 L732.298,402.64 L796.236,351.126 L796.541,351.504 L732.599,403.014" fill="#4C4942"/>
      <path d="M702.037,472.972 L701.588,472.794 L731.204,396.209 L731.651,396.384 L702.037,472.972" fill="#4C4942"/>
      <path d="M684.887,463.155 L684.513,462.853 L736.029,398.913 L736.403,399.215 L684.887,463.155" fill="#4C4942"/>
      <path d="M729.601,399.94 L729.225,399.636 L780.741,335.698 L781.115,335.999 L729.601,399.94" fill="#4C4942"/>
      <path d="M734.424,402.644 L733.975,402.468 L763.591,325.883 L764.038,326.056 L734.424,402.644" fill="#4C4942"/>
      <path d="M735.006,479.47 C735.006,479.745 734.79,479.953 734.525,479.953 L733.502,479.953 C733.239,479.953 733.019,479.745 733.019,479.47 L733.019,471.287 C733.019,471.027 733.239,470.81 733.502,470.81 L734.525,470.81 C734.79,470.81 735.006,471.027 735.006,471.287 L735.006,479.47" fill="#4C4942"/>
    </g>
  </g>
</svg>
